<svg enable-background="new 0 0 512.001 512.001" viewBox="0 0 512.001 512.001" xmlns="http://www.w3.org/2000/svg"><path d="m511.266 197.256c-1.764-5.431-6.458-9.388-12.108-10.209l-158.722-23.065-70.984-143.827c-2.527-5.12-7.741-8.361-13.451-8.361-5.709 0-10.924 3.242-13.451 8.361l-70.988 143.828-158.719 23.064c-5.65.821-10.344 4.779-12.108 10.209-1.765 5.43-.293 11.391 3.795 15.376l114.848 111.955-27.108 158.083c-.965 5.627 1.349 11.315 5.968 14.67 4.618 3.355 10.74 3.798 15.797 1.142l141.965-74.636 141.961 74.637c2.195 1.154 4.591 1.723 6.979 1.723 3.11 0 6.206-.966 8.818-2.865 4.619-3.356 6.933-9.043 5.968-14.671l-27.116-158.083 114.86-111.954c4.089-3.986 5.561-9.947 3.796-15.377zm-145.243 111.352c-3.536 3.446-5.15 8.412-4.314 13.278l23.311 135.898-122.038-64.162c-4.37-2.297-9.591-2.297-13.961 0l-122.045 64.163 23.304-135.9c.834-4.866-.779-9.83-4.313-13.276l-98.731-96.244 136.445-19.829c4.886-.71 9.108-3.778 11.294-8.205l61.025-123.646 61.023 123.645c2.186 4.427 6.408 7.496 11.294 8.206l136.447 19.828z"/></svg>