<svg enable-background="new 0 0 384.009 384.009" viewBox="0 0 384.009 384.009" xmlns="http://www.w3.org/2000/svg"><path d="m383.704 328.885-17.312-87.216c11.536-19.153 17.608-40.329 17.608-61.664 0-78.056-87.928-144-192-144s-192 65.944-192 144c0 79.4 82.544 144 184 144 13.704 0 45.832-1.312 61.48-4.464 11.496-2.256 22.864-5.464 33.888-9.568 40.544 16.16 81.12 36.168 81.544 36.376 2.248 1.112 4.672 1.656 7.088 1.656 3.456 0 6.888-1.12 9.736-3.304 4.832-3.704 7.152-9.832 5.968-15.816zm-49.96-87.289 12.368 62.336c-16.8-7.72-38.904-17.488-60.872-26.032-1.848-.72-3.896-1.088-5.88-1.088-2.064 0-4.112.4-6.024 1.176-10.992 4.472-22.432 7.888-34.088 10.168-11.68 2.352-40.52 3.848-55.248 3.848-83.816 0-152-50.24-152-112 0-59.664 74.768-112 160-112s160 52.336 160 112c0 17.336-5.32 33.992-15.816 49.52-2.392 3.536-3.264 7.888-2.44 12.072z"/><path d="m240 132.005h-128c-8.832 0-16 7.168-16 16s7.168 16 16 16h128c8.832 0 16-7.168 16-16 0-8.833-7.168-16-16-16z"/><path d="m208 196.005h-96c-8.832 0-16 7.168-16 16s7.168 16 16 16h96c8.832 0 16-7.168 16-16 0-8.833-7.168-16-16-16z"/></svg>